<svg xmlns="http://www.w3.org/2000/svg" viewBox="0 0 1200 540" font-family="-apple-system,'Segoe UI','PingFang SC',sans-serif">
  <defs><pattern id="g3" width="28" height="28" patternUnits="userSpaceOnUse">
    <path d="M28 0H0V28" fill="none" stroke="#7a98d2" stroke-opacity="0.07"/></pattern></defs>
  <rect width="1200" height="540" fill="#0d1322"/><rect width="1200" height="540" fill="url(#g3)"/>
  <rect x="24" y="16" width="1152" height="508" rx="10" fill="#141c30" stroke="#263354"/>
  <text x="46" y="52" font-family="Menlo,monospace" font-size="11" letter-spacing="2" fill="#8391ad">网络</text>
  <text x="1154" y="52" text-anchor="end" font-family="Menlo,monospace" font-size="11" fill="#8391ad">7 项</text>
  <line x1="46" y1="60" x2="1154" y2="60" stroke="#263354"/>
  <text x="46" y="80" font-size="11" fill="#8391ad">指标</text>
  <text x="620" y="80" text-anchor="end" font-size="11" fill="#8391ad">A 均值</text>
  <text x="720" y="80" text-anchor="end" font-size="11" fill="#8391ad">B 均值</text>
  <text x="920" y="80" text-anchor="end" font-size="11" fill="#8391ad">Δ</text>
  <text x="1000" y="80" text-anchor="end" font-size="11" fill="#8391ad">结论</text>
  <text x="1154" y="80" text-anchor="end" font-size="11" fill="#8391ad">单位</text>
  <line x1="46" y1="88" x2="1154" y2="88" stroke="#263354"/>

  <circle cx="54" cy="110" r="5" fill="#ff5d6c"/>
  <text x="68" y="115" font-size="12.5" fill="#dbe4f5">TCP 重传</text>
  <text x="68" y="130" font-family="Menlo,monospace" font-size="10" fill="#8391ad">network.tcp.retranssegs</text>
  <text x="620" y="117" text-anchor="end" font-family="Menlo,monospace" font-size="12.5" fill="#4cc9f0">0.84</text>
  <text x="720" y="117" text-anchor="end" font-family="Menlo,monospace" font-size="12.5" fill="#e8a33d">37.51</text>
  <text x="818" y="117" text-anchor="end" font-family="Menlo,monospace" font-size="12.5" font-weight="700" fill="#ff5d6c">+4365%</text>
  <rect x="828" y="107" width="90" height="8" rx="4" fill="#0d1322"/><line x1="873" y1="107" x2="873" y2="115" stroke="#263354"/>
  <rect x="873" y="107" width="45" height="8" fill="#ff5d6c"/>
  <text x="1000" y="117" text-anchor="end" font-size="12" fill="#dbe4f5">恶化</text>
  <text x="1154" y="117" text-anchor="end" font-family="Menlo,monospace" font-size="10" fill="#8391ad">count / second</text>
  <line x1="46" y1="140" x2="1154" y2="140" stroke="#263354" stroke-opacity="0.5"/>

  <circle cx="54" cy="162" r="5" fill="#ff5d6c"/>
  <text x="68" y="167" font-size="12.5" fill="#dbe4f5">入向丢包 <tspan font-family="Menlo,monospace" font-size="11" fill="#4cc9f0">[eth0]</tspan></text>
  <text x="68" y="182" font-family="Menlo,monospace" font-size="10" fill="#8391ad">network.interface.in.drops</text>
  <text x="620" y="169" text-anchor="end" font-family="Menlo,monospace" font-size="12.5" fill="#4cc9f0">0</text>
  <text x="720" y="169" text-anchor="end" font-family="Menlo,monospace" font-size="12.5" fill="#e8a33d">2.13</text>
  <text x="818" y="169" text-anchor="end" font-family="Menlo,monospace" font-size="12.5" font-weight="700" fill="#ff5d6c">∞</text>
  <text x="1000" y="169" text-anchor="end" font-size="12" fill="#dbe4f5">恶化</text>
  <text x="1154" y="169" text-anchor="end" font-family="Menlo,monospace" font-size="10" fill="#8391ad">count / second</text>
  <line x1="46" y1="192" x2="1154" y2="192" stroke="#263354" stroke-opacity="0.5"/>

  <circle cx="54" cy="214" r="5" fill="#e8c547"/>
  <text x="68" y="219" font-size="12.5" fill="#dbe4f5">入向流量 <tspan font-family="Menlo,monospace" font-size="11" fill="#4cc9f0">[eth0]</tspan></text>
  <text x="68" y="234" font-family="Menlo,monospace" font-size="10" fill="#8391ad">network.interface.in.bytes</text>
  <text x="620" y="221" text-anchor="end" font-family="Menlo,monospace" font-size="12.5" fill="#4cc9f0">18.42M</text>
  <text x="720" y="221" text-anchor="end" font-family="Menlo,monospace" font-size="12.5" fill="#e8a33d">36.90M</text>
  <text x="818" y="221" text-anchor="end" font-family="Menlo,monospace" font-size="12.5" fill="#e8c547">+100.3%</text>
  <rect x="828" y="211" width="90" height="8" rx="4" fill="#0d1322"/><line x1="873" y1="211" x2="873" y2="219" stroke="#263354"/>
  <rect x="873" y="211" width="1" height="8" fill="#e8c547"/>
  <text x="1000" y="221" text-anchor="end" font-size="12" fill="#dbe4f5">关注</text>
  <text x="1154" y="221" text-anchor="end" font-family="Menlo,monospace" font-size="10" fill="#8391ad">byte / second</text>
  <line x1="46" y1="244" x2="1154" y2="244" stroke="#263354" stroke-opacity="0.5"/>

  <circle cx="54" cy="266" r="5" fill="#e8c547"/>
  <text x="68" y="271" font-size="12.5" fill="#dbe4f5">TCP 被动建连</text>
  <text x="68" y="286" font-family="Menlo,monospace" font-size="10" fill="#8391ad">network.tcp.passiveopens</text>
  <text x="620" y="273" text-anchor="end" font-family="Menlo,monospace" font-size="12.5" fill="#4cc9f0">112.40</text>
  <text x="720" y="273" text-anchor="end" font-family="Menlo,monospace" font-size="12.5" fill="#e8a33d">201.88</text>
  <text x="818" y="273" text-anchor="end" font-family="Menlo,monospace" font-size="12.5" fill="#e8c547">+79.6%</text>
  <text x="1000" y="273" text-anchor="end" font-size="12" fill="#dbe4f5">关注</text>
  <text x="1154" y="273" text-anchor="end" font-family="Menlo,monospace" font-size="10" fill="#8391ad">count / second</text>
  <line x1="46" y1="296" x2="1154" y2="296" stroke="#263354" stroke-opacity="0.5"/>

  <circle cx="54" cy="318" r="5" fill="#ff5d6c"/>
  <text x="68" y="323" font-size="12.5" fill="#dbe4f5">TCP 连接重置</text>
  <text x="68" y="338" font-family="Menlo,monospace" font-size="10" fill="#8391ad">network.tcp.estabresets</text>
  <text x="620" y="325" text-anchor="end" font-family="Menlo,monospace" font-size="12.5" fill="#4cc9f0">1.02</text>
  <text x="720" y="325" text-anchor="end" font-family="Menlo,monospace" font-size="12.5" fill="#e8a33d">1.66</text>
  <text x="818" y="325" text-anchor="end" font-family="Menlo,monospace" font-size="12.5" font-weight="700" fill="#ff5d6c">+62.7%</text>
  <text x="1000" y="325" text-anchor="end" font-size="12" fill="#dbe4f5">恶化</text>
  <text x="1154" y="325" text-anchor="end" font-family="Menlo,monospace" font-size="10" fill="#8391ad">count / second</text>
  <line x1="46" y1="348" x2="1154" y2="348" stroke="#263354" stroke-opacity="0.5"/>

  <circle cx="54" cy="370" r="5" fill="#e8c547"/>
  <text x="68" y="375" font-size="12.5" fill="#dbe4f5">出向包速率 <tspan font-family="Menlo,monospace" font-size="11" fill="#4cc9f0">[eth1]</tspan></text>
  <text x="68" y="390" font-family="Menlo,monospace" font-size="10" fill="#8391ad">network.interface.out.packets</text>
  <text x="620" y="377" text-anchor="end" font-family="Menlo,monospace" font-size="12.5" fill="#4cc9f0">8.21k</text>
  <text x="720" y="377" text-anchor="end" font-family="Menlo,monospace" font-size="12.5" fill="#e8a33d">12.44k</text>
  <text x="818" y="377" text-anchor="end" font-family="Menlo,monospace" font-size="12.5" fill="#e8c547">+51.5%</text>
  <text x="1000" y="377" text-anchor="end" font-size="12" fill="#dbe4f5">关注</text>
  <text x="1154" y="377" text-anchor="end" font-family="Menlo,monospace" font-size="10" fill="#8391ad">count / second</text>
  <line x1="46" y1="400" x2="1154" y2="400" stroke="#263354" stroke-opacity="0.5"/>

  <circle cx="54" cy="422" r="5" fill="#3ddc97"/>
  <text x="68" y="427" font-size="12.5" fill="#dbe4f5">UDP 入错误</text>
  <text x="68" y="442" font-family="Menlo,monospace" font-size="10" fill="#8391ad">network.udp.inerrors</text>
  <text x="620" y="429" text-anchor="end" font-family="Menlo,monospace" font-size="12.5" fill="#4cc9f0">0.31</text>
  <text x="720" y="429" text-anchor="end" font-family="Menlo,monospace" font-size="12.5" fill="#e8a33d">0.02</text>
  <text x="818" y="429" text-anchor="end" font-family="Menlo,monospace" font-size="12.5" font-weight="700" fill="#3ddc97">-93.5%</text>
  <text x="1000" y="429" text-anchor="end" font-size="12" fill="#dbe4f5">改善</text>
  <text x="1154" y="429" text-anchor="end" font-family="Menlo,monospace" font-size="10" fill="#8391ad">count / second</text>
  <text x="600" y="490" text-anchor="middle" font-size="11.5" fill="#8391ad">分网卡实例行:同一指标按 eth0 / eth1 / lo 独立判定 · TCP 建连、重置、重传细分</text>
</svg>
