<svg xmlns="http://www.w3.org/2000/svg" viewBox="0 0 1200 430" font-family="-apple-system,'Segoe UI','PingFang SC',sans-serif">
  <defs><pattern id="g2" width="28" height="28" patternUnits="userSpaceOnUse">
    <path d="M28 0H0V28" fill="none" stroke="#7a98d2" stroke-opacity="0.07"/></pattern></defs>
  <rect width="1200" height="430" fill="#0d1322"/><rect width="1200" height="430" fill="url(#g2)"/>
  <rect x="24" y="16" width="1152" height="398" rx="10" fill="#141c30" stroke="#263354"/>
  <rect x="46" y="38" width="436" height="140" rx="10" fill="#1a2440" stroke="#263354"/>
  <rect x="46" y="38" width="436" height="2.5" fill="#4cc9f0"/>
  <text x="64" y="68" font-family="Menlo,monospace" font-size="17" font-weight="700" fill="#4cc9f0">[A</text>
  <text x="92" y="68" font-size="13.5" font-weight="600" fill="#dbe4f5">基线周期</text>
  <text x="464" y="67" text-anchor="end" font-size="11" fill="#8391ad">作为分母的参照窗口</text>
  <rect x="100" y="84" width="364" height="28" rx="6" fill="#0d1322" stroke="#263354"/>
  <text x="112" y="103" font-family="Menlo,monospace" font-size="12.5" fill="#dbe4f5">2026-07-09  14:00</text>
  <rect x="100" y="122" width="364" height="28" rx="6" fill="#0d1322" stroke="#263354"/>
  <text x="112" y="141" font-family="Menlo,monospace" font-size="12.5" fill="#dbe4f5">2026-07-09  15:00</text>
  <text x="64" y="103" font-size="12" fill="#8391ad">开始</text><text x="64" y="141" font-size="12" fill="#8391ad">结束</text>
  <text x="600" y="66" text-anchor="middle" font-family="Menlo,monospace" font-size="14" font-style="italic" fill="#8391ad">vs</text>
  <rect x="516" y="80" width="168" height="24" rx="7" fill="#1a2440" stroke="#4cc9f0"/>
  <text x="600" y="96" text-anchor="middle" font-size="11.5" fill="#4cc9f0">昨日同时段</text>
  <rect x="516" y="110" width="168" height="24" rx="7" fill="#1a2440" stroke="#263354"/>
  <text x="600" y="126" text-anchor="middle" font-size="11.5" fill="#8391ad">上一小时</text>
  <rect x="516" y="140" width="168" height="24" rx="7" fill="#1a2440" stroke="#263354"/>
  <text x="600" y="156" text-anchor="middle" font-size="11.5" fill="#8391ad">昨天全天 vs 今天</text>
  <rect x="718" y="38" width="436" height="140" rx="10" fill="#1a2440" stroke="#263354"/>
  <rect x="718" y="38" width="436" height="2.5" fill="#e8a33d"/>
  <text x="736" y="68" font-family="Menlo,monospace" font-size="17" font-weight="700" fill="#e8a33d">B]</text>
  <text x="766" y="68" font-size="13.5" font-weight="600" fill="#dbe4f5">对比周期</text>
  <text x="1136" y="67" text-anchor="end" font-size="11" fill="#8391ad">怀疑发生倒退的窗口</text>
  <rect x="772" y="84" width="364" height="28" rx="6" fill="#0d1322" stroke="#263354"/>
  <text x="784" y="103" font-family="Menlo,monospace" font-size="12.5" fill="#dbe4f5">2026-07-10  14:00</text>
  <rect x="772" y="122" width="364" height="28" rx="6" fill="#0d1322" stroke="#263354"/>
  <text x="784" y="141" font-family="Menlo,monospace" font-size="12.5" fill="#dbe4f5">2026-07-10  15:00</text>
  <text x="736" y="103" font-size="12" fill="#8391ad">开始</text><text x="736" y="141" font-size="12" fill="#8391ad">结束</text>
  <text x="46" y="216" font-size="12.5" fill="#8391ad">显著阈值 |Δ| ≥</text>
  <rect x="146" y="199" width="64" height="26" rx="6" fill="#0d1322" stroke="#263354"/>
  <text x="178" y="217" text-anchor="middle" font-family="Menlo,monospace" font-size="12.5" fill="#dbe4f5">15</text>
  <text x="218" y="216" font-size="12.5" fill="#8391ad">%</text>
  <rect x="262" y="202" width="14" height="14" rx="3" fill="#4cc9f0"/>
  <path d="M265 209 l3 3 l6 -6" stroke="#0d1322" stroke-width="2" fill="none"/>
  <text x="284" y="216" font-size="12.5" fill="#8391ad">只看显著变化</text>
  <rect x="1006" y="195" width="148" height="34" rx="7" fill="#4cc9f0"/>
  <text x="1080" y="217" text-anchor="middle" font-size="13.5" font-weight="700" fill="#06121f">开始比对</text>
  <text x="600" y="310" text-anchor="middle" font-size="13" fill="#8391ad">选择两个时间窗口,点击「开始比对」。后端会对两个窗口各执行一次 pmlogsummary,</text>
  <text x="600" y="334" text-anchor="middle" font-size="13" fill="#8391ad">按指标极性判定 恶化 / 改善 / 关注。</text>
</svg>
