<svg xmlns="http://www.w3.org/2000/svg" viewBox="0 0 1200 880" font-family="-apple-system,'Segoe UI','PingFang SC','Noto Sans CJK SC',sans-serif">
  <defs>
    <pattern id="gp" width="28" height="28" patternUnits="userSpaceOnUse">
      <path d="M28 0H0V28" fill="none" stroke="#7a98d2" stroke-opacity="0.07"/>
    </pattern>
    <linearGradient id="mk" x1="0" y1="0" x2="1" y2="1">
      <stop offset="0" stop-color="#4cc9f0"/><stop offset="1" stop-color="#e8a33d"/>
    </linearGradient>
  </defs>
  <rect width="1200" height="880" fill="#0d1322"/>
  <rect width="1200" height="880" fill="url(#gp)"/>

  <line x1="0" y1="56" x2="1200" y2="56" stroke="#263354"/>
  <rect x="22" y="14" width="30" height="28" rx="6" fill="url(#mk)"/>
  <text x="37" y="34" text-anchor="middle" font-family="Menlo,Consolas,monospace" font-size="17" font-weight="700" fill="#0d1322">Δ</text>
  <text x="62" y="34" font-family="Menlo,Consolas,monospace" font-size="16" font-weight="700" fill="#dbe4f5">deltascope</text>
  <text x="168" y="33" font-size="11.5" fill="#8391ad">单机性能倒退体检 · Performance Co-Pilot</text>
  <rect x="758" y="17" width="268" height="24" rx="12" fill="none" stroke="#263354"/>
  <text x="892" y="33" text-anchor="middle" font-family="Menlo,Consolas,monospace" font-size="11" fill="#8391ad">/var/log/pcp/pmlogger/rocky9-prod</text>
  <rect x="1036" y="17" width="66" height="24" rx="12" fill="none" stroke="#263354"/>
  <text x="1069" y="33" text-anchor="middle" font-family="Menlo,Consolas,monospace" font-size="11.5" fill="#dbe4f5">admin</text>
  <text x="1136" y="33" font-size="12.5" fill="#dbe4f5">退出</text>

  <path d="M24 100 v-22 a8 8 0 0 1 8-8 h96 a8 8 0 0 1 8 8 v22" fill="#141c30" stroke="#263354"/>
  <text x="80" y="91" text-anchor="middle" font-size="13.5" fill="#dbe4f5">倒退比对</text>
  <text x="196" y="91" text-anchor="middle" font-size="13.5" fill="#8391ad">历史趋势</text>
  <rect x="24" y="100" width="1152" height="756" rx="10" fill="#141c30" stroke="#263354"/>

  <!-- 医生意见 -->
  <rect x="46" y="122" width="1108" height="96" rx="10" fill="#ff5d6c" fill-opacity="0.12" stroke="#ff5d6c"/>
  <rect x="62" y="138" width="42" height="18" rx="4" fill="#ff5d6c"/>
  <text x="83" y="151" text-anchor="middle" font-family="Menlo,Consolas,monospace" font-size="10" font-weight="700" fill="#0d1322">严重</text>
  <text x="116" y="152" font-size="13.5" fill="#dbe4f5">内存不足已触发换页:可用内存下跌且 swap 换入/换出同时活跃,任务会被换页 I/O 拖慢</text>
  <text x="62" y="176" font-family="Menlo,Consolas,monospace" font-size="11" fill="#8391ad">依据: swap.pagesout Δ+49900.0% · mem.util.available Δ-60.0%</text>
  <text x="62" y="200" font-size="11.5" fill="#8391ad">下一步:</text>
  <rect x="112" y="188" width="64" height="18" rx="5" fill="#0d1322"/>
  <text x="144" y="201" text-anchor="middle" font-family="Menlo,Consolas,monospace" font-size="10.5" fill="#dbe4f5">free -m</text>
  <rect x="182" y="188" width="196" height="18" rx="5" fill="#0d1322"/>
  <text x="280" y="201" text-anchor="middle" font-family="Menlo,Consolas,monospace" font-size="10.5" fill="#dbe4f5">ps aux --sort=-rss | head -15</text>
  <rect x="384" y="188" width="80" height="18" rx="5" fill="#0d1322"/>
  <text x="424" y="201" text-anchor="middle" font-family="Menlo,Consolas,monospace" font-size="10.5" fill="#dbe4f5">sar -B 1 5</text>

  <rect x="46" y="228" width="1108" height="70" rx="10" fill="#e8c547" fill-opacity="0.12" stroke="#e8c547"/>
  <rect x="62" y="244" width="42" height="18" rx="4" fill="#e8c547"/>
  <text x="83" y="257" text-anchor="middle" font-family="Menlo,Consolas,monospace" font-size="10" font-weight="700" fill="#0d1322">警告</text>
  <text x="116" y="258" font-size="13.5" fill="#dbe4f5">I/O 等待拖累 CPU:CPU 空转等盘,瓶颈在存储不在算力</text>
  <text x="62" y="282" font-family="Menlo,Consolas,monospace" font-size="11" fill="#8391ad">依据: kernel.all.cpu.wait.total Δ+312.4% · disk.all.avactive Δ+287.1%    下一步: <tspan fill="#dbe4f5">iostat -x 1 5</tspan>  <tspan fill="#dbe4f5">iotop -o</tspan></text>

  <!-- 统计条 -->
  <rect x="46" y="316" width="112" height="34" rx="8" fill="#ff5d6c" fill-opacity="0.12" stroke="#ff5d6c"/>
  <text x="62" y="338" font-family="Menlo,Consolas,monospace" font-size="12" fill="#ff5d6c">🔴 恶化 <tspan font-size="15" font-weight="700">6</tspan></text>
  <rect x="168" y="316" width="112" height="34" rx="8" fill="#3ddc97" fill-opacity="0.12" stroke="#3ddc97"/>
  <text x="184" y="338" font-family="Menlo,Consolas,monospace" font-size="12" fill="#3ddc97">🟢 改善 <tspan font-size="15" font-weight="700">2</tspan></text>
  <rect x="290" y="316" width="112" height="34" rx="8" fill="#e8c547" fill-opacity="0.12" stroke="#e8c547"/>
  <text x="306" y="338" font-family="Menlo,Consolas,monospace" font-size="12" fill="#e8c547">🟡 关注 <tspan font-size="15" font-weight="700">3</tspan></text>
  <rect x="412" y="316" width="100" height="34" rx="8" fill="none" stroke="#263354"/>
  <text x="428" y="338" font-family="Menlo,Consolas,monospace" font-size="12" fill="#8391ad">平稳 <tspan font-size="15" font-weight="700">128</tspan></text>
  <rect x="522" y="316" width="118" height="34" rx="8" fill="rgba(178,141,255,.12)" stroke="#b28dff"/>
  <text x="538" y="338" font-family="Menlo,Consolas,monospace" font-size="12" fill="#b28dff">⊕ 新出现 <tspan font-size="15" font-weight="700">1</tspan></text>
  <text x="1154" y="338" text-anchor="end" font-family="Menlo,Consolas,monospace" font-size="11" fill="#8391ad"><tspan fill="#4cc9f0">[A 07-09 14:00→15:00]</tspan> vs <tspan fill="#e8a33d">[B 07-10 14:00→15:00]</tspan> · 阈值 15%</text>

  <!-- Top5 锚点 -->
  <rect x="46" y="364" width="196" height="26" rx="13" fill="#ff5d6c" fill-opacity="0.12" stroke="#ff5d6c"/>
  <text x="144" y="381" text-anchor="middle" font-family="Menlo,Consolas,monospace" font-size="11" fill="#ff5d6c">换出页(swap out) +49900%</text>
  <rect x="252" y="364" width="150" height="26" rx="13" fill="#ff5d6c" fill-opacity="0.12" stroke="#ff5d6c"/>
  <text x="327" y="381" text-anchor="middle" font-family="Menlo,Consolas,monospace" font-size="11" fill="#ff5d6c">I/O 等待 +312%</text>
  <rect x="412" y="364" width="196" height="26" rx="13" fill="#ff5d6c" fill-opacity="0.12" stroke="#ff5d6c"/>
  <text x="510" y="381" text-anchor="middle" font-family="Menlo,Consolas,monospace" font-size="11" fill="#ff5d6c">活跃时间·分盘[sdb] +287%</text>
  <rect x="618" y="364" width="160" height="26" rx="13" fill="#ff5d6c" fill-opacity="0.12" stroke="#ff5d6c"/>
  <text x="698" y="381" text-anchor="middle" font-family="Menlo,Consolas,monospace" font-size="11" fill="#ff5d6c">可用内存 -60.0%</text>
  <rect x="788" y="364" width="170" height="26" rx="13" fill="#ff5d6c" fill-opacity="0.12" stroke="#ff5d6c"/>
  <text x="873" y="381" text-anchor="middle" font-family="Menlo,Consolas,monospace" font-size="11" fill="#ff5d6c">OOM Kill 次数 ⊕</text>

  <!-- 内存分类 (稳定序 + 灰平稳 + 深浅底色 + ⊕) -->
  <text x="46" y="432" font-family="Menlo,Consolas,monospace" font-size="11" letter-spacing="2" fill="#8391ad">▾  内存</text>
  <text x="1154" y="432" text-anchor="end" font-family="Menlo,Consolas,monospace" font-size="11" fill="#8391ad">19 项</text>
  <line x1="46" y1="440" x2="1154" y2="440" stroke="#263354"/>

  <rect x="46" y="448" width="1108" height="46" fill="rgba(255,93,108,0.20)"/>
  <circle cx="54" cy="466" r="5" fill="#ff5d6c"/>
  <text x="68" y="471" font-size="12.5" fill="#dbe4f5">可用内存</text>
  <text x="68" y="486" font-family="Menlo,Consolas,monospace" font-size="10" fill="#8391ad">mem.util.available</text>
  <text x="620" y="473" text-anchor="end" font-family="Menlo,Consolas,monospace" font-size="12.5" fill="#4cc9f0">10.49M</text>
  <text x="720" y="473" text-anchor="end" font-family="Menlo,Consolas,monospace" font-size="12.5" fill="#e8a33d">4.19M</text>
  <text x="850" y="473" text-anchor="end" font-family="Menlo,Consolas,monospace" font-size="12.5" font-weight="700" fill="#ff5d6c">-60.0%</text>
  <text x="1010" y="473" text-anchor="end" font-size="12" fill="#dbe4f5">恶化</text>
  <text x="1154" y="473" text-anchor="end" font-family="Menlo,Consolas,monospace" font-size="10" fill="#8391ad">Kbyte</text>
  <line x1="46" y1="494" x2="1154" y2="494" stroke="#263354" stroke-opacity="0.5"/>

  <text x="68" y="517" font-size="12.5" fill="#8391ad">· 空闲内存</text>
  <text x="620" y="517" text-anchor="end" font-family="Menlo,Consolas,monospace" font-size="12" fill="#8391ad">1.21M</text>
  <text x="720" y="517" text-anchor="end" font-family="Menlo,Consolas,monospace" font-size="12" fill="#8391ad">1.15M</text>
  <text x="850" y="517" text-anchor="end" font-family="Menlo,Consolas,monospace" font-size="12" fill="#8391ad">-5.0%</text>
  <text x="1010" y="517" text-anchor="end" font-size="12" fill="#8391ad">平稳</text>
  <line x1="46" y1="528" x2="1154" y2="528" stroke="#263354" stroke-opacity="0.5"/>

  <rect x="46" y="534" width="1108" height="46" fill="rgba(255,93,108,0.22)"/>
  <circle cx="54" cy="552" r="5" fill="#ff5d6c"/>
  <text x="68" y="557" font-size="12.5" fill="#dbe4f5">换出页 (swap out)</text>
  <text x="68" y="572" font-family="Menlo,Consolas,monospace" font-size="10" fill="#8391ad">swap.pagesout</text>
  <text x="620" y="559" text-anchor="end" font-family="Menlo,Consolas,monospace" font-size="12.5" fill="#4cc9f0">0.10</text>
  <text x="720" y="559" text-anchor="end" font-family="Menlo,Consolas,monospace" font-size="12.5" fill="#e8a33d">50.02</text>
  <text x="850" y="559" text-anchor="end" font-family="Menlo,Consolas,monospace" font-size="12.5" font-weight="700" fill="#ff5d6c">+49900%</text>
  <text x="1010" y="559" text-anchor="end" font-size="12" fill="#dbe4f5">恶化</text>
  <text x="1154" y="559" text-anchor="end" font-family="Menlo,Consolas,monospace" font-size="10" fill="#8391ad">count / second</text>
  <line x1="46" y1="580" x2="1154" y2="580" stroke="#263354" stroke-opacity="0.5"/>

  <rect x="46" y="586" width="1108" height="46" fill="rgba(178,141,255,0.18)"/>
  <text x="52" y="609" font-family="Menlo,Consolas,monospace" font-size="13" fill="#b28dff">⊕</text>
  <text x="68" y="609" font-size="12.5" fill="#dbe4f5">OOM Kill 次数</text>
  <text x="68" y="624" font-family="Menlo,Consolas,monospace" font-size="10" fill="#8391ad">mem.vmstat.oom_kill</text>
  <text x="620" y="611" text-anchor="end" font-family="Menlo,Consolas,monospace" font-size="12.5" fill="#8391ad">—</text>
  <text x="720" y="611" text-anchor="end" font-family="Menlo,Consolas,monospace" font-size="12.5" fill="#e8a33d">0.03</text>
  <text x="850" y="611" text-anchor="end" font-family="Menlo,Consolas,monospace" font-size="13" font-weight="700" fill="#b28dff">⊕</text>
  <text x="1010" y="611" text-anchor="end" font-size="12" fill="#dbe4f5">新出现</text>
  <text x="1154" y="611" text-anchor="end" font-family="Menlo,Consolas,monospace" font-size="10" fill="#8391ad">count / second</text>
  <line x1="46" y1="632" x2="1154" y2="632" stroke="#263354" stroke-opacity="0.5"/>

  <text x="68" y="655" font-size="12.5" fill="#8391ad">· 页缓存</text>
  <text x="620" y="655" text-anchor="end" font-family="Menlo,Consolas,monospace" font-size="12" fill="#8391ad">18.34M</text>
  <text x="720" y="655" text-anchor="end" font-family="Menlo,Consolas,monospace" font-size="12" fill="#8391ad">17.98M</text>
  <text x="850" y="655" text-anchor="end" font-family="Menlo,Consolas,monospace" font-size="12" fill="#8391ad">-2.0%</text>
  <text x="1010" y="655" text-anchor="end" font-size="12" fill="#8391ad">平稳</text>

  <!-- CPU 分类: 每核聚合折叠行 -->
  <text x="46" y="712" font-family="Menlo,Consolas,monospace" font-size="11" letter-spacing="2" fill="#8391ad">▾  CPU</text>
  <text x="1154" y="712" text-anchor="end" font-family="Menlo,Consolas,monospace" font-size="11" fill="#8391ad">23 项</text>
  <line x1="46" y1="720" x2="1154" y2="720" stroke="#263354"/>

  <rect x="46" y="728" width="1108" height="46" fill="rgba(255,93,108,0.16)"/>
  <circle cx="54" cy="746" r="5" fill="#ff5d6c"/>
  <text x="68" y="751" font-size="12.5" fill="#dbe4f5">I/O 等待 <tspan font-family="Menlo,Consolas,monospace" font-size="10" fill="#8391ad">kernel.all.cpu.wait.total</tspan></text>
  <text x="620" y="753" text-anchor="end" font-family="Menlo,Consolas,monospace" font-size="12.5" fill="#4cc9f0">42.10</text>
  <text x="720" y="753" text-anchor="end" font-family="Menlo,Consolas,monospace" font-size="12.5" fill="#e8a33d">173.6</text>
  <text x="850" y="753" text-anchor="end" font-family="Menlo,Consolas,monospace" font-size="12.5" font-weight="700" fill="#ff5d6c">+312.4%</text>
  <text x="1010" y="753" text-anchor="end" font-size="12" fill="#dbe4f5">恶化</text>
  <line x1="46" y1="774" x2="1154" y2="774" stroke="#263354" stroke-opacity="0.5"/>

  <circle cx="54" cy="796" r="5" fill="#e8c547"/>
  <text x="68" y="801" font-size="12.5" fill="#dbe4f5">软中断·每核 <tspan font-family="Menlo,Consolas,monospace" font-size="11" fill="#4cc9f0">32 实例</tspan> ▸</text>
  <text x="68" y="816" font-family="Menlo,Consolas,monospace" font-size="10" fill="#8391ad">kernel.percpu.cpu.irq.soft · B 极差 0.21 ~ 84.30</text>
  <text x="720" y="803" text-anchor="end" font-family="Menlo,Consolas,monospace" font-size="12.5" fill="#e8a33d">84.30</text>
  <text x="850" y="803" text-anchor="end" font-family="Menlo,Consolas,monospace" font-size="12" fill="#e8c547">最差 +196.0%</text>
  <text x="1010" y="803" text-anchor="end" font-size="12" fill="#dbe4f5">关注</text>

  <text x="600" y="850" text-anchor="middle" font-size="11.5" fill="#8391ad">结论 → 依据 → 全量明细三层结构 · 平稳行灰显不隐藏 · 行底色深浅 ∝ |Δ| · 每核指标聚合折叠</text>
</svg>
