<svg xmlns="http://www.w3.org/2000/svg" viewBox="0 0 1200 520" font-family="-apple-system,'Segoe UI','PingFang SC',sans-serif">
  <defs><pattern id="g4" width="28" height="28" patternUnits="userSpaceOnUse">
    <path d="M28 0H0V28" fill="none" stroke="#7a98d2" stroke-opacity="0.07"/></pattern></defs>
  <rect width="1200" height="520" fill="#0d1322"/><rect width="1200" height="520" fill="url(#g4)"/>
  <rect x="24" y="16" width="1152" height="488" rx="10" fill="#141c30" stroke="#263354"/>
  <text x="46" y="52" font-family="Menlo,monospace" font-size="11" letter-spacing="2" fill="#8391ad">磁盘 I/O</text>
  <text x="1154" y="52" text-anchor="end" font-family="Menlo,monospace" font-size="11" fill="#8391ad">4 项</text>
  <line x1="46" y1="60" x2="1154" y2="60" stroke="#263354"/>

  <circle cx="54" cy="86" r="5" fill="#ff5d6c"/>
  <text x="68" y="91" font-size="12.5" fill="#dbe4f5">磁盘活跃时间·分盘 <tspan font-family="Menlo,monospace" font-size="11" fill="#4cc9f0">[sdb]</tspan></text>
  <text x="68" y="106" font-family="Menlo,monospace" font-size="10" fill="#8391ad">disk.dev.avactive</text>
  <text x="620" y="93" text-anchor="end" font-family="Menlo,monospace" font-size="12.5" fill="#4cc9f0">42.10</text>
  <text x="720" y="93" text-anchor="end" font-family="Menlo,monospace" font-size="12.5" fill="#e8a33d">318.66</text>
  <text x="818" y="93" text-anchor="end" font-family="Menlo,monospace" font-size="12.5" font-weight="700" fill="#ff5d6c">+656.9%</text>
  <rect x="828" y="83" width="90" height="8" rx="4" fill="#0d1322"/><line x1="873" y1="83" x2="873" y2="91" stroke="#263354"/>
  <rect x="873" y="83" width="45" height="8" fill="#ff5d6c"/>
  <text x="1000" y="93" text-anchor="end" font-size="12" fill="#dbe4f5">恶化</text>
  <text x="1154" y="93" text-anchor="end" font-family="Menlo,monospace" font-size="10" fill="#8391ad">millisec / second</text>
  <line x1="46" y1="116" x2="1154" y2="116" stroke="#263354" stroke-opacity="0.5"/>

  <circle cx="54" cy="138" r="5" fill="#ff5d6c"/>
  <text x="68" y="143" font-size="12.5" fill="#dbe4f5">I/O 队列·分盘 <tspan font-family="Menlo,monospace" font-size="11" fill="#4cc9f0">[sdb]</tspan></text>
  <text x="68" y="158" font-family="Menlo,monospace" font-size="10" fill="#8391ad">disk.dev.aveq</text>
  <text x="620" y="145" text-anchor="end" font-family="Menlo,monospace" font-size="12.5" fill="#4cc9f0">0.86</text>
  <text x="720" y="145" text-anchor="end" font-family="Menlo,monospace" font-size="12.5" fill="#e8a33d">7.42</text>
  <text x="818" y="145" text-anchor="end" font-family="Menlo,monospace" font-size="12.5" font-weight="700" fill="#ff5d6c">+762.8%</text>
  <rect x="828" y="135" width="90" height="8" rx="4" fill="#0d1322"/><line x1="873" y1="135" x2="873" y2="143" stroke="#263354"/>
  <rect x="873" y="135" width="45" height="8" fill="#ff5d6c"/>
  <text x="1000" y="145" text-anchor="end" font-size="12" fill="#dbe4f5">恶化</text>
  <text x="1154" y="145" text-anchor="end" font-family="Menlo,monospace" font-size="10" fill="#8391ad">none</text>
  <line x1="46" y1="168" x2="1154" y2="168" stroke="#263354" stroke-opacity="0.5"/>

  <circle cx="54" cy="190" r="5" fill="#e8c547"/>
  <text x="68" y="195" font-size="12.5" fill="#dbe4f5">写吞吐·分盘 <tspan font-family="Menlo,monospace" font-size="11" fill="#4cc9f0">[sdb]</tspan></text>
  <text x="68" y="210" font-family="Menlo,monospace" font-size="10" fill="#8391ad">disk.dev.write_bytes</text>
  <text x="620" y="197" text-anchor="end" font-family="Menlo,monospace" font-size="12.5" fill="#4cc9f0">3.12M</text>
  <text x="720" y="197" text-anchor="end" font-family="Menlo,monospace" font-size="12.5" fill="#e8a33d">11.85M</text>
  <text x="818" y="197" text-anchor="end" font-family="Menlo,monospace" font-size="12.5" fill="#e8c547">+279.8%</text>
  <text x="1000" y="197" text-anchor="end" font-size="12" fill="#dbe4f5">关注</text>
  <text x="1154" y="197" text-anchor="end" font-family="Menlo,monospace" font-size="10" fill="#8391ad">Kbyte / second</text>
  <line x1="46" y1="220" x2="1154" y2="220" stroke="#263354" stroke-opacity="0.5"/>

  <circle cx="54" cy="242" r="5" fill="#e8c547"/>
  <text x="68" y="247" font-size="12.5" fill="#dbe4f5">读吞吐·分盘 <tspan font-family="Menlo,monospace" font-size="11" fill="#4cc9f0">[sda]</tspan></text>
  <text x="68" y="262" font-family="Menlo,monospace" font-size="10" fill="#8391ad">disk.dev.read_bytes</text>
  <text x="620" y="249" text-anchor="end" font-family="Menlo,monospace" font-size="12.5" fill="#4cc9f0">824.50</text>
  <text x="720" y="249" text-anchor="end" font-family="Menlo,monospace" font-size="12.5" fill="#e8a33d">1.42M</text>
  <text x="818" y="249" text-anchor="end" font-family="Menlo,monospace" font-size="12.5" fill="#e8c547">+72.2%</text>
  <text x="1000" y="249" text-anchor="end" font-size="12" fill="#dbe4f5">关注</text>
  <text x="1154" y="249" text-anchor="end" font-family="Menlo,monospace" font-size="10" fill="#8391ad">Kbyte / second</text>

  <text x="46" y="316" font-family="Menlo,monospace" font-size="11" letter-spacing="2" fill="#8391ad">文件系统</text>
  <text x="1154" y="316" text-anchor="end" font-family="Menlo,monospace" font-size="11" fill="#8391ad">3 项</text>
  <line x1="46" y1="324" x2="1154" y2="324" stroke="#263354"/>

  <circle cx="54" cy="350" r="5" fill="#ff5d6c"/>
  <text x="68" y="355" font-size="12.5" fill="#dbe4f5">空间使用率 <tspan font-family="Menlo,monospace" font-size="11" fill="#4cc9f0">[/dev/sdb1 /data]</tspan></text>
  <text x="68" y="370" font-family="Menlo,monospace" font-size="10" fill="#8391ad">filesys.full</text>
  <text x="620" y="357" text-anchor="end" font-family="Menlo,monospace" font-size="12.5" fill="#4cc9f0">71.20</text>
  <text x="720" y="357" text-anchor="end" font-family="Menlo,monospace" font-size="12.5" fill="#e8a33d">92.45</text>
  <text x="818" y="357" text-anchor="end" font-family="Menlo,monospace" font-size="12.5" font-weight="700" fill="#ff5d6c">+29.8%</text>
  <rect x="828" y="347" width="90" height="8" rx="4" fill="#0d1322"/><line x1="873" y1="347" x2="873" y2="355" stroke="#263354"/>
  <rect x="873" y="347" width="3" height="8" fill="#ff5d6c"/>
  <text x="1000" y="357" text-anchor="end" font-size="12" fill="#dbe4f5">恶化</text>
  <text x="1154" y="357" text-anchor="end" font-family="Menlo,monospace" font-size="10" fill="#8391ad">percent</text>
  <line x1="46" y1="380" x2="1154" y2="380" stroke="#263354" stroke-opacity="0.5"/>

  <circle cx="54" cy="402" r="5" fill="#e8c547"/>
  <text x="68" y="407" font-size="12.5" fill="#dbe4f5">打开文件数</text>
  <text x="68" y="422" font-family="Menlo,monospace" font-size="10" fill="#8391ad">vfs.files.count</text>
  <text x="620" y="409" text-anchor="end" font-family="Menlo,monospace" font-size="12.5" fill="#4cc9f0">12.48k</text>
  <text x="720" y="409" text-anchor="end" font-family="Menlo,monospace" font-size="12.5" fill="#e8a33d">31.06k</text>
  <text x="818" y="409" text-anchor="end" font-family="Menlo,monospace" font-size="12.5" fill="#e8c547">+148.9%</text>
  <text x="1000" y="409" text-anchor="end" font-size="12" fill="#dbe4f5">关注</text>
  <text x="1154" y="409" text-anchor="end" font-family="Menlo,monospace" font-size="10" fill="#8391ad">count</text>
  <text x="600" y="470" text-anchor="middle" font-size="11.5" fill="#8391ad">分盘行精确定位到 sdb;/data 分区使用率 92% 触红 · 文件句柄翻倍提示泄漏排查</text>
</svg>
