<svg xmlns="http://www.w3.org/2000/svg" viewBox="0 0 1200 500" font-family="-apple-system,'Segoe UI','PingFang SC',sans-serif">
  <defs><pattern id="g7" width="28" height="28" patternUnits="userSpaceOnUse">
    <path d="M28 0H0V28" fill="none" stroke="#7a98d2" stroke-opacity="0.07"/></pattern>
  <linearGradient id="fm" x1="0" y1="0" x2="0" y2="1">
    <stop offset="0" stop-color="#4cc9f0" stop-opacity="0.16"/><stop offset="1" stop-color="#4cc9f0" stop-opacity="0"/>
  </linearGradient></defs>
  <rect width="1200" height="500" fill="#0d1322"/><rect width="1200" height="500" fill="url(#g7)"/>
  <rect x="24" y="16" width="1152" height="468" rx="10" fill="#141c30" stroke="#263354"/>
  <rect x="46" y="36" width="100" height="30" rx="8" fill="#4cc9f0" fill-opacity="0.12" stroke="#4cc9f0"/>
  <text x="96" y="56" text-anchor="middle" font-family="Menlo,monospace" font-size="11.5" fill="#4cc9f0">可用内存</text>
  <rect x="166" y="36" width="70" height="30" rx="8" fill="#4cc9f0" fill-opacity="0.12" stroke="#263354"/>
  <text x="201" y="56" text-anchor="middle" font-family="Menlo,monospace" font-size="11.5" fill="#4cc9f0">7d</text>
  <rect x="330" y="82" width="14" height="8" rx="3" fill="#4cc9f0"/>
  <text x="350" y="91" font-family="Menlo,monospace" font-size="11" fill="#8391ad">mem.util.available</text>
  <line x1="110" y1="130" x2="1130" y2="130" stroke="#7a98d2" stroke-opacity="0.1"/>
  <line x1="110" y1="210" x2="1130" y2="210" stroke="#7a98d2" stroke-opacity="0.1"/>
  <line x1="110" y1="290" x2="1130" y2="290" stroke="#7a98d2" stroke-opacity="0.1"/>
  <line x1="110" y1="370" x2="1130" y2="370" stroke="#263354"/>
  <text x="100" y="134" text-anchor="end" font-family="Menlo,monospace" font-size="10.5" fill="#8391ad">16G</text>
  <text x="100" y="214" text-anchor="end" font-family="Menlo,monospace" font-size="10.5" fill="#8391ad">8G</text>
  <text x="100" y="294" text-anchor="end" font-family="Menlo,monospace" font-size="10.5" fill="#8391ad">4G</text>
  <text x="100" y="374" text-anchor="end" font-family="Menlo,monospace" font-size="10.5" fill="#8391ad">0</text>
  <path d="M110 158 L170 162 L230 168 L290 176 L350 188 L410 204" fill="none" stroke="#4cc9f0" stroke-width="2"/>
  <path d="M110 158 L170 162 L230 168 L290 176 L350 188 L410 204 L410 370 L110 370 Z" fill="url(#fm)"/>
  <path d="M492 214 L550 224 L610 238 L670 252 L730 268 L790 286 L850 300 L910 288 L970 176 L1030 172 L1090 170 L1130 168" fill="none" stroke="#4cc9f0" stroke-width="2"/>
  <path d="M492 214 L550 224 L610 238 L670 252 L730 268 L790 286 L850 300 L910 288 L970 176 L1030 172 L1090 170 L1130 168 L1130 370 L492 370 Z" fill="url(#fm)"/>
  <rect x="414" y="120" width="74" height="250" fill="#0d1322" fill-opacity="0.4"/>
  <text x="451" y="250" text-anchor="middle" font-family="Menlo,monospace" font-size="10" fill="#8391ad">归档缺口</text>
  <text x="451" y="264" text-anchor="middle" font-family="Menlo,monospace" font-size="10" fill="#8391ad">(断线不插值)</text>
  <text x="960" y="156" font-family="Menlo,monospace" font-size="10" fill="#3ddc97">↑ 服务重启, 内存释放</text>
  <text x="110" y="392" font-family="Menlo,monospace" font-size="10.5" fill="#8391ad">07-04</text>
  <text x="600" y="392" font-family="Menlo,monospace" font-size="10.5" fill="#8391ad">07-07</text>
  <text x="1104" y="392" font-family="Menlo,monospace" font-size="10.5" fill="#8391ad">07-10</text>
  <rect x="110" y="412" width="1020" height="30" rx="6" fill="#141c30" stroke="#263354"/>
  <path d="M116 436 L300 432 L500 434 L700 430 L900 426 L1124 424" fill="none" stroke="#4cc9f0" stroke-opacity="0.5" stroke-width="1.5"/>
  <rect x="110" y="412" width="1020" height="30" fill="#4cc9f0" fill-opacity="0.10" stroke="#4cc9f0" stroke-opacity="0.5"/>
  <rect x="104" y="416" width="8" height="22" rx="3" fill="#4cc9f0"/>
  <rect x="1126" y="416" width="8" height="22" rx="3" fill="#4cc9f0"/>
  <text x="600" y="470" text-anchor="middle" font-size="11.5" fill="#8391ad">7 天窗口自适应步长(~600 点);pmlogger 停机段断线呈现,不做插值伪装</text>
</svg>
